<svg xmlns="http://www.w3.org/2000/svg" viewBox="12 12 266 441">
  <path d="M135.0,15.0C131.8,15.5 131.5,15.5 129.0,18.0C126.5,20.5 121.3,24.7 120.0,30.0C118.7,35.3 119.5,44.7 121.0,50.0C122.5,55.3 127.5,57.7 129.0,62.0C130.5,66.3 130.8,72.5 130.0,76.0C129.2,79.5 128.3,80.3 124.0,83.0C119.7,85.7 107.8,89.5 104.0,92.0C100.2,94.5 101.7,87.7 101.0,98.0C100.3,108.3 101.2,141.2 100.0,154.0C98.8,166.8 95.5,167.0 94.0,175.0C92.5,183.0 90.7,191.7 91.0,202.0C91.3,212.3 96.0,229.5 96.0,237.0C96.0,244.5 99.3,237.8 91.0,247.0C82.7,256.2 58.7,278.2 46.0,292.0C33.3,305.8 20.2,311.8 15.0,330.0C9.8,348.2 12.3,386.3 15.0,401.0C17.7,415.7 22.8,413.8 31.0,418.0C39.2,422.2 47.8,423.7 64.0,426.0C80.2,428.3 112.0,429.5 128.0,432.0C144.0,434.5 153.0,439.8 160.0,441.0C167.0,442.2 162.7,439.0 170.0,439.0C177.3,439.0 194.5,439.3 204.0,441.0C213.5,442.7 219.3,448.8 227.0,449.0C234.7,449.2 244.7,444.3 250.0,442.0C255.3,439.7 255.8,436.7 259.0,435.0C262.2,433.3 266.5,433.5 269.0,432.0C271.5,430.5 273.2,436.3 274.0,426.0C274.8,415.7 275.8,381.3 274.0,370.0C272.2,358.7 263.0,374.2 263.0,358.0C263.0,341.8 272.3,291.0 274.0,273.0C275.7,255.0 273.8,254.7 273.0,250.0C272.2,245.3 271.5,246.2 269.0,245.0C266.5,243.8 262.0,245.0 258.0,243.0C254.0,241.0 249.7,234.8 245.0,233.0C240.3,231.2 234.8,233.7 230.0,232.0C225.2,230.3 220.5,225.2 216.0,223.0C211.5,220.8 208.7,223.2 203.0,219.0C197.3,214.8 185.5,207.5 182.0,198.0C178.5,188.5 181.3,171.5 182.0,162.0C182.7,152.5 185.3,148.7 186.0,141.0C186.7,133.3 185.5,121.3 186.0,116.0C186.5,110.7 189.0,112.8 189.0,109.0C189.0,105.2 187.3,97.0 186.0,93.0C184.7,89.0 184.8,87.3 181.0,85.0C177.2,82.7 167.2,81.3 163.0,79.0C158.8,76.7 156.2,77.0 156.0,71.0C155.8,65.0 161.0,49.5 162.0,43.0C163.0,36.5 162.7,35.5 162.0,32.0C161.3,28.5 160.3,24.8 158.0,22.0C155.7,19.2 151.8,16.2 148.0,15.0C144.2,13.8 138.2,14.5 135.0,15.0Z" fill="black" stroke="none"/>
</svg>